<mxfile host="app.diagrams.net" agent="Mozilla/5.0 (X11; Linux x86_64) AppleWebKit/537.36 (KHTML, like Gecko) Chrome/128.0.0.0 Safari/537.36" version="24.7.16">
  <diagram name="Page-1" id="ygvEJeif8jtYMkeodKxt">
    <mxGraphModel dx="1294" dy="735" grid="0" gridSize="10" guides="1" tooltips="1" connect="1" arrows="1" fold="1" page="1" pageScale="1" pageWidth="850" pageHeight="1100" math="0" shadow="0">
      <root>
        <mxCell id="0" />
        <mxCell id="1" parent="0" />
        <mxCell id="vk4hDPv6KdDmeWT89cOQ-1" value="Users" style="swimlane;fontStyle=0;childLayout=stackLayout;horizontal=1;startSize=26;horizontalStack=0;resizeParent=1;resizeParentMax=0;resizeLast=0;collapsible=1;marginBottom=0;align=center;fontSize=14;" parent="1" vertex="1">
          <mxGeometry x="290" y="20" width="160" height="260" as="geometry" />
        </mxCell>
        <mxCell id="vk4hDPv6KdDmeWT89cOQ-5" value="id: int (PK) NOT NULL" style="text;strokeColor=none;fillColor=none;spacingLeft=4;spacingRight=4;overflow=hidden;rotatable=0;points=[[0,0.5],[1,0.5]];portConstraint=eastwest;fontSize=12;whiteSpace=wrap;html=1;" parent="vk4hDPv6KdDmeWT89cOQ-1" vertex="1">
          <mxGeometry y="26" width="160" height="30" as="geometry" />
        </mxCell>
        <mxCell id="vk4hDPv6KdDmeWT89cOQ-7" value="UID: UUID NOT NULL" style="text;strokeColor=none;fillColor=none;spacingLeft=4;spacingRight=4;overflow=hidden;rotatable=0;points=[[0,0.5],[1,0.5]];portConstraint=eastwest;fontSize=12;whiteSpace=wrap;html=1;" parent="vk4hDPv6KdDmeWT89cOQ-1" vertex="1">
          <mxGeometry y="56" width="160" height="30" as="geometry" />
        </mxCell>
        <mxCell id="vk4hDPv6KdDmeWT89cOQ-8" value="wallet_address: varchar(55) NOT NULL" style="text;strokeColor=none;fillColor=none;spacingLeft=4;spacingRight=4;overflow=hidden;rotatable=0;points=[[0,0.5],[1,0.5]];portConstraint=eastwest;fontSize=12;whiteSpace=wrap;html=1;" parent="vk4hDPv6KdDmeWT89cOQ-1" vertex="1">
          <mxGeometry y="86" width="160" height="44" as="geometry" />
        </mxCell>
        <mxCell id="vk4hDPv6KdDmeWT89cOQ-2" value="login: VARCHAR(50) NOT NULL" style="text;strokeColor=none;fillColor=none;spacingLeft=4;spacingRight=4;overflow=hidden;rotatable=0;points=[[0,0.5],[1,0.5]];portConstraint=eastwest;fontSize=12;whiteSpace=wrap;html=1;" parent="vk4hDPv6KdDmeWT89cOQ-1" vertex="1">
          <mxGeometry y="130" width="160" height="44" as="geometry" />
        </mxCell>
        <mxCell id="vk4hDPv6KdDmeWT89cOQ-4" value="password: VARCHAR(50) NOT NULL" style="text;strokeColor=none;fillColor=none;spacingLeft=4;spacingRight=4;overflow=hidden;rotatable=0;points=[[0,0.5],[1,0.5]];portConstraint=eastwest;fontSize=12;whiteSpace=wrap;html=1;" parent="vk4hDPv6KdDmeWT89cOQ-1" vertex="1">
          <mxGeometry y="174" width="160" height="46" as="geometry" />
        </mxCell>
        <mxCell id="vk4hDPv6KdDmeWT89cOQ-61" value="role_id: int (FK) NOT NULL" style="text;strokeColor=none;fillColor=none;spacingLeft=4;spacingRight=4;overflow=hidden;rotatable=0;points=[[0,0.5],[1,0.5]];portConstraint=eastwest;fontSize=12;whiteSpace=wrap;html=1;" parent="vk4hDPv6KdDmeWT89cOQ-1" vertex="1">
          <mxGeometry y="220" width="160" height="40" as="geometry" />
        </mxCell>
        <mxCell id="vk4hDPv6KdDmeWT89cOQ-66" style="edgeStyle=orthogonalEdgeStyle;rounded=0;orthogonalLoop=1;jettySize=auto;html=1;" parent="1" source="vk4hDPv6KdDmeWT89cOQ-11" target="vk4hDPv6KdDmeWT89cOQ-61" edge="1">
          <mxGeometry relative="1" as="geometry" />
        </mxCell>
        <mxCell id="vk4hDPv6KdDmeWT89cOQ-11" value="Roles" style="swimlane;fontStyle=0;childLayout=stackLayout;horizontal=1;startSize=26;horizontalStack=0;resizeParent=1;resizeParentMax=0;resizeLast=0;collapsible=1;marginBottom=0;align=center;fontSize=14;" parent="1" vertex="1">
          <mxGeometry x="100" y="290" width="160" height="94" as="geometry" />
        </mxCell>
        <mxCell id="vk4hDPv6KdDmeWT89cOQ-12" value="id: int (PK) NOT NULL " style="text;strokeColor=none;fillColor=none;spacingLeft=4;spacingRight=4;overflow=hidden;rotatable=0;points=[[0,0.5],[1,0.5]];portConstraint=eastwest;fontSize=12;whiteSpace=wrap;html=1;" parent="vk4hDPv6KdDmeWT89cOQ-11" vertex="1">
          <mxGeometry y="26" width="160" height="24" as="geometry" />
        </mxCell>
        <mxCell id="vk4hDPv6KdDmeWT89cOQ-53" value="name: VARCHAR(255) NOT NULL" style="text;strokeColor=none;fillColor=none;spacingLeft=4;spacingRight=4;overflow=hidden;rotatable=0;points=[[0,0.5],[1,0.5]];portConstraint=eastwest;fontSize=12;whiteSpace=wrap;html=1;" parent="vk4hDPv6KdDmeWT89cOQ-11" vertex="1">
          <mxGeometry y="50" width="160" height="44" as="geometry" />
        </mxCell>
        <mxCell id="vk4hDPv6KdDmeWT89cOQ-14" value="Transactions" style="swimlane;fontStyle=0;childLayout=stackLayout;horizontal=1;startSize=26;horizontalStack=0;resizeParent=1;resizeParentMax=0;resizeLast=0;collapsible=1;marginBottom=0;align=center;fontSize=14;" parent="1" vertex="1">
          <mxGeometry x="500" y="395" width="160" height="355" as="geometry" />
        </mxCell>
        <mxCell id="vk4hDPv6KdDmeWT89cOQ-15" value="id: int (PK) NOT NULL" style="text;strokeColor=none;fillColor=none;spacingLeft=4;spacingRight=4;overflow=hidden;rotatable=0;points=[[0,0.5],[1,0.5]];portConstraint=eastwest;fontSize=12;whiteSpace=wrap;html=1;" parent="vk4hDPv6KdDmeWT89cOQ-14" vertex="1">
          <mxGeometry y="26" width="160" height="34" as="geometry" />
        </mxCell>
        <mxCell id="vk4hDPv6KdDmeWT89cOQ-89" value="tx_hash: VARCHAR(65) NOT NULL" style="text;strokeColor=none;fillColor=none;spacingLeft=4;spacingRight=4;overflow=hidden;rotatable=0;points=[[0,0.5],[1,0.5]];portConstraint=eastwest;fontSize=12;whiteSpace=wrap;html=1;" parent="vk4hDPv6KdDmeWT89cOQ-14" vertex="1">
          <mxGeometry y="60" width="160" height="44" as="geometry" />
        </mxCell>
        <mxCell id="vk4hDPv6KdDmeWT89cOQ-16" value="smart_contract_id: VARCHAR(60) NOT NULL" style="text;strokeColor=none;fillColor=none;spacingLeft=4;spacingRight=4;overflow=hidden;rotatable=0;points=[[0,0.5],[1,0.5]];portConstraint=eastwest;fontSize=12;whiteSpace=wrap;html=1;" parent="vk4hDPv6KdDmeWT89cOQ-14" vertex="1">
          <mxGeometry y="104" width="160" height="40" as="geometry" />
        </mxCell>
        <mxCell id="vk4hDPv6KdDmeWT89cOQ-17" value="type: VARCHAR(255) NOT NULL" style="text;strokeColor=none;fillColor=none;spacingLeft=4;spacingRight=4;overflow=hidden;rotatable=0;points=[[0,0.5],[1,0.5]];portConstraint=eastwest;fontSize=12;whiteSpace=wrap;html=1;" parent="vk4hDPv6KdDmeWT89cOQ-14" vertex="1">
          <mxGeometry y="144" width="160" height="50" as="geometry" />
        </mxCell>
        <mxCell id="vk4hDPv6KdDmeWT89cOQ-18" value="product_id: int (FK) NOT NULL" style="text;strokeColor=none;fillColor=none;spacingLeft=4;spacingRight=4;overflow=hidden;rotatable=0;points=[[0,0.5],[1,0.5]];portConstraint=eastwest;fontSize=12;whiteSpace=wrap;html=1;" parent="vk4hDPv6KdDmeWT89cOQ-14" vertex="1">
          <mxGeometry y="194" width="160" height="40" as="geometry" />
        </mxCell>
        <mxCell id="vk4hDPv6KdDmeWT89cOQ-19" value="tx_date: TIMESTAMP NOT NULL" style="text;strokeColor=none;fillColor=none;spacingLeft=4;spacingRight=4;overflow=hidden;rotatable=0;points=[[0,0.5],[1,0.5]];portConstraint=eastwest;fontSize=12;whiteSpace=wrap;html=1;" parent="vk4hDPv6KdDmeWT89cOQ-14" vertex="1">
          <mxGeometry y="234" width="160" height="41" as="geometry" />
        </mxCell>
        <mxCell id="vk4hDPv6KdDmeWT89cOQ-20" value="owner_address: VARCHAR(55) NOT NULL" style="text;strokeColor=none;fillColor=none;spacingLeft=4;spacingRight=4;overflow=hidden;rotatable=0;points=[[0,0.5],[1,0.5]];portConstraint=eastwest;fontSize=12;whiteSpace=wrap;html=1;" parent="vk4hDPv6KdDmeWT89cOQ-14" vertex="1">
          <mxGeometry y="275" width="160" height="40" as="geometry" />
        </mxCell>
        <mxCell id="vk4hDPv6KdDmeWT89cOQ-21" value="receiver_address: VARCHAR(55)&amp;nbsp; NULL" style="text;strokeColor=none;fillColor=none;spacingLeft=4;spacingRight=4;overflow=hidden;rotatable=0;points=[[0,0.5],[1,0.5]];portConstraint=eastwest;fontSize=12;whiteSpace=wrap;html=1;" parent="vk4hDPv6KdDmeWT89cOQ-14" vertex="1">
          <mxGeometry y="315" width="160" height="40" as="geometry" />
        </mxCell>
        <mxCell id="vk4hDPv6KdDmeWT89cOQ-102" style="edgeStyle=orthogonalEdgeStyle;rounded=0;orthogonalLoop=1;jettySize=auto;html=1;" parent="1" source="vk4hDPv6KdDmeWT89cOQ-23" target="vk4hDPv6KdDmeWT89cOQ-18" edge="1">
          <mxGeometry relative="1" as="geometry" />
        </mxCell>
        <mxCell id="vk4hDPv6KdDmeWT89cOQ-23" value="Product" style="swimlane;fontStyle=0;childLayout=stackLayout;horizontal=1;startSize=26;horizontalStack=0;resizeParent=1;resizeParentMax=0;resizeLast=0;collapsible=1;marginBottom=0;align=center;fontSize=14;" parent="1" vertex="1">
          <mxGeometry x="310" y="630" width="160" height="301" as="geometry" />
        </mxCell>
        <mxCell id="vk4hDPv6KdDmeWT89cOQ-25" value="name: VARCHAR(255) NOT NULL" style="text;strokeColor=none;fillColor=none;spacingLeft=4;spacingRight=4;overflow=hidden;rotatable=0;points=[[0,0.5],[1,0.5]];portConstraint=eastwest;fontSize=12;whiteSpace=wrap;html=1;" parent="vk4hDPv6KdDmeWT89cOQ-23" vertex="1">
          <mxGeometry y="26" width="160" height="44" as="geometry" />
        </mxCell>
        <mxCell id="vk4hDPv6KdDmeWT89cOQ-27" value="description: VARCHAR(1000) NULL" style="text;strokeColor=none;fillColor=none;spacingLeft=4;spacingRight=4;overflow=hidden;rotatable=0;points=[[0,0.5],[1,0.5]];portConstraint=eastwest;fontSize=12;whiteSpace=wrap;html=1;" parent="vk4hDPv6KdDmeWT89cOQ-23" vertex="1">
          <mxGeometry y="70" width="160" height="49" as="geometry" />
        </mxCell>
        <mxCell id="vk4hDPv6KdDmeWT89cOQ-28" value="onchain_address: VARCHAR(55) NOT NULL" style="text;strokeColor=none;fillColor=none;spacingLeft=4;spacingRight=4;overflow=hidden;rotatable=0;points=[[0,0.5],[1,0.5]];portConstraint=eastwest;fontSize=12;whiteSpace=wrap;html=1;" parent="vk4hDPv6KdDmeWT89cOQ-23" vertex="1">
          <mxGeometry y="119" width="160" height="40" as="geometry" />
        </mxCell>
        <mxCell id="vk4hDPv6KdDmeWT89cOQ-29" value="owner_address: VARCHAR(55) NOT NULL" style="text;strokeColor=none;fillColor=none;spacingLeft=4;spacingRight=4;overflow=hidden;rotatable=0;points=[[0,0.5],[1,0.5]];portConstraint=eastwest;fontSize=12;whiteSpace=wrap;html=1;" parent="vk4hDPv6KdDmeWT89cOQ-23" vertex="1">
          <mxGeometry y="159" width="160" height="40" as="geometry" />
        </mxCell>
        <mxCell id="vk4hDPv6KdDmeWT89cOQ-30" value="metadata: TEXT NULL" style="text;strokeColor=none;fillColor=none;spacingLeft=4;spacingRight=4;overflow=hidden;rotatable=0;points=[[0,0.5],[1,0.5]];portConstraint=eastwest;fontSize=12;whiteSpace=wrap;html=1;" parent="vk4hDPv6KdDmeWT89cOQ-23" vertex="1">
          <mxGeometry y="199" width="160" height="30" as="geometry" />
        </mxCell>
        <mxCell id="vk4hDPv6KdDmeWT89cOQ-26" value="type_id: int (FK) NOT NULL" style="text;strokeColor=none;fillColor=none;spacingLeft=4;spacingRight=4;overflow=hidden;rotatable=0;points=[[0,0.5],[1,0.5]];portConstraint=eastwest;fontSize=12;whiteSpace=wrap;html=1;" parent="vk4hDPv6KdDmeWT89cOQ-23" vertex="1">
          <mxGeometry y="229" width="160" height="40" as="geometry" />
        </mxCell>
        <mxCell id="1V5xZsHOr_TcBm8M5MlK-1" value="id: int (PK) NOT NULL" style="text;strokeColor=none;fillColor=none;spacingLeft=4;spacingRight=4;overflow=hidden;rotatable=0;points=[[0,0.5],[1,0.5]];portConstraint=eastwest;fontSize=12;whiteSpace=wrap;html=1;" parent="vk4hDPv6KdDmeWT89cOQ-23" vertex="1">
          <mxGeometry y="269" width="160" height="32" as="geometry" />
        </mxCell>
        <mxCell id="vk4hDPv6KdDmeWT89cOQ-105" style="edgeStyle=orthogonalEdgeStyle;rounded=0;orthogonalLoop=1;jettySize=auto;html=1;" parent="1" source="vk4hDPv6KdDmeWT89cOQ-32" target="vk4hDPv6KdDmeWT89cOQ-26" edge="1">
          <mxGeometry relative="1" as="geometry">
            <Array as="points">
              <mxPoint x="590" y="780" />
              <mxPoint x="490" y="780" />
              <mxPoint x="490" y="890" />
            </Array>
          </mxGeometry>
        </mxCell>
        <mxCell id="vk4hDPv6KdDmeWT89cOQ-32" value="Product Type" style="swimlane;fontStyle=0;childLayout=stackLayout;horizontal=1;startSize=26;horizontalStack=0;resizeParent=1;resizeParentMax=0;resizeLast=0;collapsible=1;marginBottom=0;align=center;fontSize=14;" parent="1" vertex="1">
          <mxGeometry x="510" y="810" width="160" height="100" as="geometry" />
        </mxCell>
        <mxCell id="vk4hDPv6KdDmeWT89cOQ-33" value="id: int (PK) NOT NULL" style="text;strokeColor=none;fillColor=none;spacingLeft=4;spacingRight=4;overflow=hidden;rotatable=0;points=[[0,0.5],[1,0.5]];portConstraint=eastwest;fontSize=12;whiteSpace=wrap;html=1;" parent="vk4hDPv6KdDmeWT89cOQ-32" vertex="1">
          <mxGeometry y="26" width="160" height="30" as="geometry" />
        </mxCell>
        <mxCell id="vk4hDPv6KdDmeWT89cOQ-55" value="name: VARCHAR(255) NOT NULL" style="text;strokeColor=none;fillColor=none;spacingLeft=4;spacingRight=4;overflow=hidden;rotatable=0;points=[[0,0.5],[1,0.5]];portConstraint=eastwest;fontSize=12;whiteSpace=wrap;html=1;" parent="vk4hDPv6KdDmeWT89cOQ-32" vertex="1">
          <mxGeometry y="56" width="160" height="44" as="geometry" />
        </mxCell>
        <mxCell id="vk4hDPv6KdDmeWT89cOQ-106" style="edgeStyle=orthogonalEdgeStyle;rounded=0;orthogonalLoop=1;jettySize=auto;html=1;" parent="1" source="vk4hDPv6KdDmeWT89cOQ-35" target="vk4hDPv6KdDmeWT89cOQ-16" edge="1">
          <mxGeometry relative="1" as="geometry">
            <Array as="points">
              <mxPoint x="370" y="290" />
              <mxPoint x="475" y="290" />
              <mxPoint x="475" y="508" />
            </Array>
          </mxGeometry>
        </mxCell>
        <mxCell id="vk4hDPv6KdDmeWT89cOQ-35" value="Smart - contract" style="swimlane;fontStyle=0;childLayout=stackLayout;horizontal=1;startSize=26;horizontalStack=0;resizeParent=1;resizeParentMax=0;resizeLast=0;collapsible=1;marginBottom=0;align=center;fontSize=14;" parent="1" vertex="1">
          <mxGeometry x="290" y="320" width="160" height="250" as="geometry" />
        </mxCell>
        <mxCell id="vk4hDPv6KdDmeWT89cOQ-36" value="UID: UUID NOT NULL" style="text;strokeColor=none;fillColor=none;spacingLeft=4;spacingRight=4;overflow=hidden;rotatable=0;points=[[0,0.5],[1,0.5]];portConstraint=eastwest;fontSize=12;whiteSpace=wrap;html=1;" parent="vk4hDPv6KdDmeWT89cOQ-35" vertex="1">
          <mxGeometry y="26" width="160" height="30" as="geometry" />
        </mxCell>
        <mxCell id="vk4hDPv6KdDmeWT89cOQ-37" value="address: VARCHAR(55) NOT NULL" style="text;strokeColor=none;fillColor=none;spacingLeft=4;spacingRight=4;overflow=hidden;rotatable=0;points=[[0,0.5],[1,0.5]];portConstraint=eastwest;fontSize=12;whiteSpace=wrap;html=1;" parent="vk4hDPv6KdDmeWT89cOQ-35" vertex="1">
          <mxGeometry y="56" width="160" height="44" as="geometry" />
        </mxCell>
        <mxCell id="vk4hDPv6KdDmeWT89cOQ-38" value="ABI: JSON&amp;nbsp; NULL" style="text;strokeColor=none;fillColor=none;spacingLeft=4;spacingRight=4;overflow=hidden;rotatable=0;points=[[0,0.5],[1,0.5]];portConstraint=eastwest;fontSize=12;whiteSpace=wrap;html=1;" parent="vk4hDPv6KdDmeWT89cOQ-35" vertex="1">
          <mxGeometry y="100" width="160" height="30" as="geometry" />
        </mxCell>
        <mxCell id="vk4hDPv6KdDmeWT89cOQ-39" value="owner_address: VARCHAR(55) NOT NULL" style="text;strokeColor=none;fillColor=none;spacingLeft=4;spacingRight=4;overflow=hidden;rotatable=0;points=[[0,0.5],[1,0.5]];portConstraint=eastwest;fontSize=12;whiteSpace=wrap;html=1;" parent="vk4hDPv6KdDmeWT89cOQ-35" vertex="1">
          <mxGeometry y="130" width="160" height="40" as="geometry" />
        </mxCell>
        <mxCell id="vk4hDPv6KdDmeWT89cOQ-40" value="status: VARCHAR(100) NULL" style="text;strokeColor=none;fillColor=none;spacingLeft=4;spacingRight=4;overflow=hidden;rotatable=0;points=[[0,0.5],[1,0.5]];portConstraint=eastwest;fontSize=12;whiteSpace=wrap;html=1;" parent="vk4hDPv6KdDmeWT89cOQ-35" vertex="1">
          <mxGeometry y="170" width="160" height="40" as="geometry" />
        </mxCell>
        <mxCell id="vk4hDPv6KdDmeWT89cOQ-41" value="creation_date: TIMESTAMP NULL" style="text;strokeColor=none;fillColor=none;spacingLeft=4;spacingRight=4;overflow=hidden;rotatable=0;points=[[0,0.5],[1,0.5]];portConstraint=eastwest;fontSize=12;whiteSpace=wrap;html=1;" parent="vk4hDPv6KdDmeWT89cOQ-35" vertex="1">
          <mxGeometry y="210" width="160" height="40" as="geometry" />
        </mxCell>
        <mxCell id="vk4hDPv6KdDmeWT89cOQ-43" value="Requests" style="swimlane;fontStyle=0;childLayout=stackLayout;horizontal=1;startSize=26;horizontalStack=0;resizeParent=1;resizeParentMax=0;resizeLast=0;collapsible=1;marginBottom=0;align=center;fontSize=14;" parent="1" vertex="1">
          <mxGeometry x="690" y="20" width="160" height="220" as="geometry" />
        </mxCell>
        <mxCell id="vk4hDPv6KdDmeWT89cOQ-44" value="id: int (PK) NOT NULL" style="text;strokeColor=none;fillColor=none;spacingLeft=4;spacingRight=4;overflow=hidden;rotatable=0;points=[[0,0.5],[1,0.5]];portConstraint=eastwest;fontSize=12;whiteSpace=wrap;html=1;" parent="vk4hDPv6KdDmeWT89cOQ-43" vertex="1">
          <mxGeometry y="26" width="160" height="30" as="geometry" />
        </mxCell>
        <mxCell id="vk4hDPv6KdDmeWT89cOQ-45" value="creation_date: TIMESTAMP NOT NULL" style="text;strokeColor=none;fillColor=none;spacingLeft=4;spacingRight=4;overflow=hidden;rotatable=0;points=[[0,0.5],[1,0.5]];portConstraint=eastwest;fontSize=12;whiteSpace=wrap;html=1;" parent="vk4hDPv6KdDmeWT89cOQ-43" vertex="1">
          <mxGeometry y="56" width="160" height="44" as="geometry" />
        </mxCell>
        <mxCell id="vk4hDPv6KdDmeWT89cOQ-46" value="description: TEXT NOT NULL" style="text;strokeColor=none;fillColor=none;spacingLeft=4;spacingRight=4;overflow=hidden;rotatable=0;points=[[0,0.5],[1,0.5]];portConstraint=eastwest;fontSize=12;whiteSpace=wrap;html=1;" parent="vk4hDPv6KdDmeWT89cOQ-43" vertex="1">
          <mxGeometry y="100" width="160" height="40" as="geometry" />
        </mxCell>
        <mxCell id="vk4hDPv6KdDmeWT89cOQ-54" value="name: VARCHAR(255) NOT NULL" style="text;strokeColor=none;fillColor=none;spacingLeft=4;spacingRight=4;overflow=hidden;rotatable=0;points=[[0,0.5],[1,0.5]];portConstraint=eastwest;fontSize=12;whiteSpace=wrap;html=1;" parent="vk4hDPv6KdDmeWT89cOQ-43" vertex="1">
          <mxGeometry y="140" width="160" height="40" as="geometry" />
        </mxCell>
        <mxCell id="vk4hDPv6KdDmeWT89cOQ-81" value="email_address: VARCHAR(256) NOT NULL" style="text;strokeColor=none;fillColor=none;spacingLeft=4;spacingRight=4;overflow=hidden;rotatable=0;points=[[0,0.5],[1,0.5]];portConstraint=eastwest;fontSize=12;whiteSpace=wrap;html=1;" parent="vk4hDPv6KdDmeWT89cOQ-43" vertex="1">
          <mxGeometry y="180" width="160" height="40" as="geometry" />
        </mxCell>
        <mxCell id="vk4hDPv6KdDmeWT89cOQ-47" value="Logs" style="swimlane;fontStyle=0;childLayout=stackLayout;horizontal=1;startSize=26;horizontalStack=0;resizeParent=1;resizeParentMax=0;resizeLast=0;collapsible=1;marginBottom=0;align=center;fontSize=14;" parent="1" vertex="1">
          <mxGeometry x="-130" y="20" width="160" height="220" as="geometry" />
        </mxCell>
        <mxCell id="vk4hDPv6KdDmeWT89cOQ-48" value="id: int (PK) NOT NULL" style="text;strokeColor=none;fillColor=none;spacingLeft=4;spacingRight=4;overflow=hidden;rotatable=0;points=[[0,0.5],[1,0.5]];portConstraint=eastwest;fontSize=12;whiteSpace=wrap;html=1;" parent="vk4hDPv6KdDmeWT89cOQ-47" vertex="1">
          <mxGeometry y="26" width="160" height="30" as="geometry" />
        </mxCell>
        <mxCell id="vk4hDPv6KdDmeWT89cOQ-49" value="interaction_type: VARCHAR(255) NOT NULL" style="text;strokeColor=none;fillColor=none;spacingLeft=4;spacingRight=4;overflow=hidden;rotatable=0;points=[[0,0.5],[1,0.5]];portConstraint=eastwest;fontSize=12;whiteSpace=wrap;html=1;" parent="vk4hDPv6KdDmeWT89cOQ-47" vertex="1">
          <mxGeometry y="56" width="160" height="44" as="geometry" />
        </mxCell>
        <mxCell id="vk4hDPv6KdDmeWT89cOQ-50" value="created_at: TIMESTAMP NOT NULL" style="text;strokeColor=none;fillColor=none;spacingLeft=4;spacingRight=4;overflow=hidden;rotatable=0;points=[[0,0.5],[1,0.5]];portConstraint=eastwest;fontSize=12;whiteSpace=wrap;html=1;" parent="vk4hDPv6KdDmeWT89cOQ-47" vertex="1">
          <mxGeometry y="100" width="160" height="40" as="geometry" />
        </mxCell>
        <mxCell id="vk4hDPv6KdDmeWT89cOQ-51" value="log_type: VARCHAR(255) NOT NULL" style="text;strokeColor=none;fillColor=none;spacingLeft=4;spacingRight=4;overflow=hidden;rotatable=0;points=[[0,0.5],[1,0.5]];portConstraint=eastwest;fontSize=12;whiteSpace=wrap;html=1;" parent="vk4hDPv6KdDmeWT89cOQ-47" vertex="1">
          <mxGeometry y="140" width="160" height="40" as="geometry" />
        </mxCell>
        <mxCell id="vk4hDPv6KdDmeWT89cOQ-57" value="name: VARCHAR(1000) NOT NULL" style="text;strokeColor=none;fillColor=none;spacingLeft=4;spacingRight=4;overflow=hidden;rotatable=0;points=[[0,0.5],[1,0.5]];portConstraint=eastwest;fontSize=12;whiteSpace=wrap;html=1;" parent="vk4hDPv6KdDmeWT89cOQ-47" vertex="1">
          <mxGeometry y="180" width="160" height="40" as="geometry" />
        </mxCell>
        <mxCell id="vk4hDPv6KdDmeWT89cOQ-68" value="User Logs" style="swimlane;fontStyle=0;childLayout=stackLayout;horizontal=1;startSize=26;horizontalStack=0;resizeParent=1;resizeParentMax=0;resizeLast=0;collapsible=1;marginBottom=0;align=center;fontSize=14;" parent="1" vertex="1">
          <mxGeometry x="90" y="20" width="160" height="160" as="geometry" />
        </mxCell>
        <mxCell id="vk4hDPv6KdDmeWT89cOQ-69" value="id: int (PK) NOT NULL" style="text;strokeColor=none;fillColor=none;spacingLeft=4;spacingRight=4;overflow=hidden;rotatable=0;points=[[0,0.5],[1,0.5]];portConstraint=eastwest;fontSize=12;whiteSpace=wrap;html=1;" parent="vk4hDPv6KdDmeWT89cOQ-68" vertex="1">
          <mxGeometry y="26" width="160" height="30" as="geometry" />
        </mxCell>
        <mxCell id="vk4hDPv6KdDmeWT89cOQ-70" value="user_id: int (FK) NOT NULL" style="text;strokeColor=none;fillColor=none;spacingLeft=4;spacingRight=4;overflow=hidden;rotatable=0;points=[[0,0.5],[1,0.5]];portConstraint=eastwest;fontSize=12;whiteSpace=wrap;html=1;" parent="vk4hDPv6KdDmeWT89cOQ-68" vertex="1">
          <mxGeometry y="56" width="160" height="44" as="geometry" />
        </mxCell>
        <mxCell id="vk4hDPv6KdDmeWT89cOQ-71" value="log_id: int (FK) NOT NULL" style="text;strokeColor=none;fillColor=none;spacingLeft=4;spacingRight=4;overflow=hidden;rotatable=0;points=[[0,0.5],[1,0.5]];portConstraint=eastwest;fontSize=12;whiteSpace=wrap;html=1;" parent="vk4hDPv6KdDmeWT89cOQ-68" vertex="1">
          <mxGeometry y="100" width="160" height="30" as="geometry" />
        </mxCell>
        <mxCell id="vk4hDPv6KdDmeWT89cOQ-75" value="UID: UUID NOT NULL" style="text;strokeColor=none;fillColor=none;spacingLeft=4;spacingRight=4;overflow=hidden;rotatable=0;points=[[0,0.5],[1,0.5]];portConstraint=eastwest;fontSize=12;whiteSpace=wrap;html=1;" parent="vk4hDPv6KdDmeWT89cOQ-68" vertex="1">
          <mxGeometry y="130" width="160" height="30" as="geometry" />
        </mxCell>
        <mxCell id="vk4hDPv6KdDmeWT89cOQ-73" style="edgeStyle=orthogonalEdgeStyle;rounded=0;orthogonalLoop=1;jettySize=auto;html=1;" parent="1" source="vk4hDPv6KdDmeWT89cOQ-70" target="vk4hDPv6KdDmeWT89cOQ-5" edge="1">
          <mxGeometry relative="1" as="geometry" />
        </mxCell>
        <mxCell id="vk4hDPv6KdDmeWT89cOQ-74" style="edgeStyle=orthogonalEdgeStyle;rounded=0;orthogonalLoop=1;jettySize=auto;html=1;" parent="1" source="vk4hDPv6KdDmeWT89cOQ-71" target="vk4hDPv6KdDmeWT89cOQ-48" edge="1">
          <mxGeometry relative="1" as="geometry" />
        </mxCell>
        <mxCell id="vk4hDPv6KdDmeWT89cOQ-76" value="User Requests" style="swimlane;fontStyle=0;childLayout=stackLayout;horizontal=1;startSize=26;horizontalStack=0;resizeParent=1;resizeParentMax=0;resizeLast=0;collapsible=1;marginBottom=0;align=center;fontSize=14;" parent="1" vertex="1">
          <mxGeometry x="500" y="20" width="160" height="170" as="geometry" />
        </mxCell>
        <mxCell id="vk4hDPv6KdDmeWT89cOQ-77" value="id: int (PK) NOT NULL" style="text;strokeColor=none;fillColor=none;spacingLeft=4;spacingRight=4;overflow=hidden;rotatable=0;points=[[0,0.5],[1,0.5]];portConstraint=eastwest;fontSize=12;whiteSpace=wrap;html=1;" parent="vk4hDPv6KdDmeWT89cOQ-76" vertex="1">
          <mxGeometry y="26" width="160" height="30" as="geometry" />
        </mxCell>
        <mxCell id="vk4hDPv6KdDmeWT89cOQ-78" value="user_id: int (FK) NOT NULL" style="text;strokeColor=none;fillColor=none;spacingLeft=4;spacingRight=4;overflow=hidden;rotatable=0;points=[[0,0.5],[1,0.5]];portConstraint=eastwest;fontSize=12;whiteSpace=wrap;html=1;" parent="vk4hDPv6KdDmeWT89cOQ-76" vertex="1">
          <mxGeometry y="56" width="160" height="44" as="geometry" />
        </mxCell>
        <mxCell id="vk4hDPv6KdDmeWT89cOQ-79" value="request_id: int (FK) NOT NULL" style="text;strokeColor=none;fillColor=none;spacingLeft=4;spacingRight=4;overflow=hidden;rotatable=0;points=[[0,0.5],[1,0.5]];portConstraint=eastwest;fontSize=12;whiteSpace=wrap;html=1;" parent="vk4hDPv6KdDmeWT89cOQ-76" vertex="1">
          <mxGeometry y="100" width="160" height="40" as="geometry" />
        </mxCell>
        <mxCell id="vk4hDPv6KdDmeWT89cOQ-80" value="UID: UUID NOT NULL" style="text;strokeColor=none;fillColor=none;spacingLeft=4;spacingRight=4;overflow=hidden;rotatable=0;points=[[0,0.5],[1,0.5]];portConstraint=eastwest;fontSize=12;whiteSpace=wrap;html=1;" parent="vk4hDPv6KdDmeWT89cOQ-76" vertex="1">
          <mxGeometry y="140" width="160" height="30" as="geometry" />
        </mxCell>
        <mxCell id="vk4hDPv6KdDmeWT89cOQ-82" style="edgeStyle=orthogonalEdgeStyle;rounded=0;orthogonalLoop=1;jettySize=auto;html=1;" parent="1" source="vk4hDPv6KdDmeWT89cOQ-78" target="vk4hDPv6KdDmeWT89cOQ-5" edge="1">
          <mxGeometry relative="1" as="geometry" />
        </mxCell>
        <mxCell id="vk4hDPv6KdDmeWT89cOQ-83" style="edgeStyle=orthogonalEdgeStyle;rounded=0;orthogonalLoop=1;jettySize=auto;html=1;" parent="1" source="vk4hDPv6KdDmeWT89cOQ-79" target="vk4hDPv6KdDmeWT89cOQ-44" edge="1">
          <mxGeometry relative="1" as="geometry">
            <Array as="points">
              <mxPoint x="670" y="140" />
              <mxPoint x="670" y="61" />
            </Array>
          </mxGeometry>
        </mxCell>
        <mxCell id="vk4hDPv6KdDmeWT89cOQ-95" value="User Transactions" style="swimlane;fontStyle=0;childLayout=stackLayout;horizontal=1;startSize=26;horizontalStack=0;resizeParent=1;resizeParentMax=0;resizeLast=0;collapsible=1;marginBottom=0;align=center;fontSize=14;" parent="1" vertex="1">
          <mxGeometry x="500" y="220" width="160" height="163" as="geometry" />
        </mxCell>
        <mxCell id="vk4hDPv6KdDmeWT89cOQ-96" value="user_id: int (FK) NOT NULL" style="text;strokeColor=none;fillColor=none;spacingLeft=4;spacingRight=4;overflow=hidden;rotatable=0;points=[[0,0.5],[1,0.5]];portConstraint=eastwest;fontSize=12;whiteSpace=wrap;html=1;" parent="vk4hDPv6KdDmeWT89cOQ-95" vertex="1">
          <mxGeometry y="26" width="160" height="44" as="geometry" />
        </mxCell>
        <mxCell id="vk4hDPv6KdDmeWT89cOQ-97" value="tx_id: int (FK) NOT NULL" style="text;strokeColor=none;fillColor=none;spacingLeft=4;spacingRight=4;overflow=hidden;rotatable=0;points=[[0,0.5],[1,0.5]];portConstraint=eastwest;fontSize=12;whiteSpace=wrap;html=1;" parent="vk4hDPv6KdDmeWT89cOQ-95" vertex="1">
          <mxGeometry y="70" width="160" height="40" as="geometry" />
        </mxCell>
        <mxCell id="vk4hDPv6KdDmeWT89cOQ-98" value="UID: UUID NOT NULL" style="text;strokeColor=none;fillColor=none;spacingLeft=4;spacingRight=4;overflow=hidden;rotatable=0;points=[[0,0.5],[1,0.5]];portConstraint=eastwest;fontSize=12;whiteSpace=wrap;html=1;" parent="vk4hDPv6KdDmeWT89cOQ-95" vertex="1">
          <mxGeometry y="110" width="160" height="30" as="geometry" />
        </mxCell>
        <mxCell id="w98Qv0mU3PLyvpsOS6Tp-2" value="id: int (PK) NOT NULL" style="text;strokeColor=none;fillColor=none;spacingLeft=4;spacingRight=4;overflow=hidden;rotatable=0;points=[[0,0.5],[1,0.5]];portConstraint=eastwest;fontSize=12;whiteSpace=wrap;html=1;" vertex="1" parent="vk4hDPv6KdDmeWT89cOQ-95">
          <mxGeometry y="140" width="160" height="23" as="geometry" />
        </mxCell>
        <mxCell id="vk4hDPv6KdDmeWT89cOQ-100" style="edgeStyle=orthogonalEdgeStyle;rounded=0;orthogonalLoop=1;jettySize=auto;html=1;entryX=1;entryY=0.5;entryDx=0;entryDy=0;" parent="1" source="vk4hDPv6KdDmeWT89cOQ-96" target="vk4hDPv6KdDmeWT89cOQ-5" edge="1">
          <mxGeometry relative="1" as="geometry" />
        </mxCell>
        <mxCell id="vk4hDPv6KdDmeWT89cOQ-107" style="edgeStyle=orthogonalEdgeStyle;rounded=0;orthogonalLoop=1;jettySize=auto;html=1;entryX=1;entryY=0.5;entryDx=0;entryDy=0;" parent="1" source="vk4hDPv6KdDmeWT89cOQ-15" target="vk4hDPv6KdDmeWT89cOQ-97" edge="1">
          <mxGeometry relative="1" as="geometry">
            <Array as="points">
              <mxPoint x="680" y="427" />
              <mxPoint x="680" y="310" />
            </Array>
          </mxGeometry>
        </mxCell>
      </root>
    </mxGraphModel>
  </diagram>
</mxfile>
